<svg width="542" height="362" viewBox="0 0 542 362" fill="none" xmlns="http://www.w3.org/2000/svg">
<path d="M452.8 345.834C432.159 355.62 409.596 360.681 386.753 360.65C383.468 360.65 380.207 360.549 376.969 360.345C306.391 355.922 235.606 355.922 165.028 360.345C161.793 360.547 158.531 360.648 155.245 360.65C128.734 360.689 102.666 353.868 79.5721 340.85C114.505 325.718 182.737 315.439 261.194 315.439C347.99 315.439 422.274 328.016 452.8 345.834Z" fill="#2F2E41"/>
<path d="M253.568 180.347H239.95V187.429H253.568V180.347Z" fill="#FBBEBE"/>
<path opacity="0.1" d="M253.568 180.347H239.95V187.429H253.568V180.347Z" fill="black"/>
<path d="M214.892 78.4837C224.519 78.4837 232.324 70.6795 232.324 61.0526C232.324 51.4257 224.519 43.6215 214.892 43.6215C205.265 43.6215 197.461 51.4257 197.461 61.0526C197.461 70.6795 205.265 78.4837 214.892 78.4837Z" fill="#2F2E41"/>
<path d="M254.385 176.806C254.385 176.806 248.938 175.172 247.848 175.717C246.759 176.262 251.661 180.62 251.661 180.62L254.385 176.806Z" fill="#FBBEBE"/>
<path opacity="0.1" d="M254.385 176.806C254.385 176.806 248.938 175.172 247.848 175.717C246.759 176.262 251.661 180.62 251.661 180.62L254.385 176.806Z" fill="black"/>
<path d="M216.799 316.255C216.799 316.255 229.327 317.89 231.506 317.89C233.685 317.89 239.677 320.069 236.409 322.793C233.141 325.517 212.441 329.33 209.718 327.696C206.994 326.061 203.181 321.158 205.904 320.614C208.628 320.069 216.799 316.255 216.799 316.255Z" fill="#3F3D56"/>
<path d="M194.465 336.41L190.107 344.036L195.555 346.76L205.904 348.938L211.352 341.857L209.173 333.686L194.465 336.41Z" fill="#FBBEBE"/>
<path d="M223.336 280.304C223.336 280.304 216.254 310.264 217.344 311.898C218.433 313.532 220.612 317.89 218.433 319.525C216.254 321.159 207.539 321.703 207.539 321.703L210.262 305.906L214.075 286.841L223.336 280.304Z" fill="#2F2E41"/>
<path d="M203.726 217.116L210.807 249.255C210.807 249.255 211.896 265.052 209.173 271.044C206.449 277.036 191.742 340.224 191.742 340.224C191.742 340.224 206.994 340.768 210.262 339.134C213.531 337.5 219.043 299.77 219.043 299.77C219.043 299.77 236.954 263.962 236.409 256.881C235.864 249.799 239.115 213.827 234.494 211.114C229.872 208.4 203.726 217.116 203.726 217.116Z" fill="#2F2E41"/>
<path d="M204.815 346.215L211.352 339.678C211.352 339.678 228.783 348.394 231.506 348.939C234.23 349.484 240.222 353.842 234.23 355.476C228.238 357.11 205.904 356.021 200.457 355.476C195.01 354.931 184.115 354.386 185.75 351.118C187.384 347.849 190.107 336.41 190.107 336.41C190.107 336.41 191.613 334.328 192.494 337.004C193.376 339.678 193.921 343.492 196.099 343.492C198.278 343.492 204.815 346.215 204.815 346.215Z" fill="#3F3D56"/>
<path d="M288.702 207.856L303.955 206.766L314.305 212.213L313.215 218.75L308.857 219.84C308.857 219.84 296.873 214.937 289.792 216.571C282.71 218.205 288.702 207.856 288.702 207.856Z" fill="#A0616A"/>
<path d="M306.678 210.035C306.678 210.035 312.67 216.589 306.678 219.031C306.678 219.031 307.768 220.929 312.125 221.474C316.483 222.019 322.475 225.832 324.109 225.832C325.743 225.832 332.825 224.742 328.467 218.75C324.109 212.758 306.678 199.685 306.678 199.685C306.678 199.685 301.776 197.506 300.142 201.864C298.507 206.221 297.645 207.217 297.645 207.217C297.645 207.217 305.589 208.945 306.678 210.035Z" fill="#2F2E41"/>
<path d="M260.922 262.328C260.922 262.328 265.824 280.849 265.824 281.938C265.824 283.028 272.361 277.58 272.361 277.58L273.45 267.775C273.45 267.775 269.092 263.418 269.092 260.694C269.092 257.97 260.922 262.328 260.922 262.328Z" fill="#A0616A"/>
<path d="M270.726 275.401C270.726 275.401 266.913 280.304 264.19 278.67L265.824 297.19C265.824 297.19 266.913 306.451 270.726 302.638C274.54 298.824 278.353 279.759 278.353 279.759C278.353 279.759 283.8 268.32 279.442 266.686C276.968 265.738 274.416 265.009 271.816 264.507C271.816 264.507 271.816 275.946 270.726 275.401Z" fill="#2F2E41"/>
<path d="M235.319 213.303L251.661 247.076C251.661 247.076 257.108 266.141 259.287 266.686C261.466 267.23 269.637 263.417 270.726 262.873C271.816 262.328 261.466 241.084 261.466 237.271C261.466 233.458 248.937 212.213 248.937 212.213L235.319 213.303Z" fill="#FF6584"/>
<path opacity="0.1" d="M235.319 213.303L251.661 247.076C251.661 247.076 257.108 266.141 259.287 266.686C261.466 267.23 269.637 263.417 270.726 262.873C271.816 262.328 261.466 241.084 261.466 237.271C261.466 233.458 248.937 212.213 248.937 212.213L235.319 213.303Z" fill="black"/>
<path d="M246.759 154.473C246.759 154.473 247.303 165.912 245.125 173.538C242.946 181.164 247.848 206.222 247.848 206.222C247.848 206.222 256.019 206.766 258.198 206.222C260.377 205.677 289.792 205.132 291.426 206.222C293.06 207.311 292.515 226.376 291.426 225.832C290.337 225.287 262.011 219.295 248.393 221.474C234.775 223.653 233.141 220.384 232.596 219.295C232.051 218.205 222.791 188.79 222.791 188.79L219.523 174.628L215.165 159.375L217.888 144.668L246.759 154.473Z" fill="#FF6584"/>
<path d="M213.803 83.3863C221.925 83.3863 228.511 76.8017 228.511 68.6788C228.511 60.5564 221.925 53.9714 213.803 53.9714C205.68 53.9714 199.095 60.5564 199.095 68.6788C199.095 76.8017 205.68 83.3863 213.803 83.3863Z" fill="#A0616A"/>
<path d="M186.294 117.976C194.417 117.976 201.002 111.392 201.002 103.269C201.002 95.1465 194.417 88.5613 186.294 88.5613C178.171 88.5613 171.587 95.1465 171.587 103.269C171.587 111.392 178.171 117.976 186.294 117.976Z" fill="#FBBEBE"/>
<path d="M217.888 78.7562C217.888 78.7562 227.693 85.2928 226.059 89.1059C224.425 92.919 220.067 97.2767 220.067 97.2767L219.523 103.269L227.693 105.992L248.393 107.082C248.393 107.082 247.303 88.5612 240.767 83.6587C234.23 78.7562 226.604 75.4878 225.514 71.13C224.425 66.7723 217.888 78.7562 217.888 78.7562Z" fill="#A0616A"/>
<path d="M244.915 92.1923C241.35 85.5325 231.321 86.342 229.242 93.6037C228.969 94.4835 228.885 95.41 228.993 96.3246C229.101 97.2387 229.401 98.1201 229.872 98.911C233.685 105.448 236.409 110.35 236.409 110.35L248.393 109.261C248.393 109.261 248.628 99.1289 244.915 92.1923Z" fill="#A0616A"/>
<path d="M221.857 95.3234C221.857 95.3234 207.539 104.358 208.628 110.35C209.717 116.342 210.807 126.692 210.807 130.505C210.807 134.318 214.62 146.302 220.067 148.481C225.514 150.66 225.514 144.668 233.141 151.749C240.767 158.831 248.938 162.099 248.393 163.188C247.848 164.278 250.572 153.383 246.214 149.026C241.856 144.668 236.954 132.139 241.311 126.692C245.669 121.245 249.482 107.082 249.482 107.082C249.482 107.082 248.938 103.813 245.669 104.358C242.401 104.903 222.246 102.724 221.157 100C220.839 99.2307 220.736 98.3886 220.86 97.565C220.983 96.7413 221.328 95.9667 221.857 95.3234Z" fill="#2F2E41"/>
<path d="M219.825 99.9427C219.825 99.9427 234.775 83.6586 236.954 84.2033C239.133 84.748 245.407 91.1944 245.407 91.1944L236.954 85.2928L219.825 100.861V99.9427Z" fill="#2F2E41"/>
<path d="M198.823 105.992C198.823 105.992 200.869 128.024 203.659 130.082C206.449 132.139 182.481 131.594 182.481 131.594C182.481 131.594 187.929 114.708 184.66 112.529C181.392 110.35 198.823 105.992 198.823 105.992Z" fill="#FBBEBE"/>
<path d="M204.27 123.968C204.27 123.968 185.75 119.066 183.571 121.789C181.392 124.513 177.034 147.936 177.034 147.936C177.034 147.936 179.213 163.733 183.026 175.172C186.839 186.612 191.742 226.921 195.555 226.921C199.368 226.921 205.904 220.929 207.539 220.929C209.173 220.929 218.978 216.027 224.97 217.116C228.411 217.793 231.967 217.606 235.319 216.571C235.319 216.571 232.596 193.693 226.059 187.701C219.523 181.709 216.254 140.31 216.254 140.31C216.254 140.31 206.994 122.879 204.27 123.968Z" fill="#3F3D56"/>
<path d="M232.596 175.717C232.596 175.717 238.789 184.124 244.953 184.551L248.393 184.433C248.393 184.433 242.946 198.595 245.669 199.14C248.393 199.685 256.564 188.791 253.84 182.799C251.116 176.807 242.946 167.546 242.946 167.546L232.596 175.717Z" fill="#FBBEBE"/>
<path d="M254.385 175.717C254.385 175.717 245.124 184.433 248.938 188.246C252.751 192.059 257.653 188.246 257.653 188.246C257.653 188.246 261.466 182.798 254.385 175.717Z" fill="#FBBEBE"/>
<path opacity="0.1" d="M254.385 175.717C254.385 175.717 245.124 184.433 248.938 188.246C252.751 192.059 257.653 188.246 257.653 188.246C257.653 188.246 261.466 182.798 254.385 175.717Z" fill="black"/>
<path d="M218.705 75.2154C228.332 75.2154 236.137 67.4111 236.137 57.7843C236.137 48.1574 228.332 40.3533 218.705 40.3533C209.079 40.3533 201.274 48.1574 201.274 57.7843C201.274 67.4111 209.079 75.2154 218.705 75.2154Z" fill="#2F2E41"/>
<path d="M226.876 53.4267C232.592 53.4267 237.226 48.7929 237.226 43.0769C237.226 37.3609 232.592 32.7272 226.876 32.7272C221.16 32.7272 216.527 37.3609 216.527 43.0769C216.527 48.7929 221.16 53.4267 226.876 53.4267Z" fill="#2F2E41"/>
<path d="M218.705 39.8085C218.705 37.2523 219.652 34.7867 221.362 32.8865C223.071 30.9863 225.424 29.7861 227.966 29.5169C227.604 29.4786 227.24 29.4591 226.876 29.4587C225.47 29.4579 224.079 29.7433 222.788 30.2977C221.496 30.8521 220.331 31.6638 219.363 32.6832C218.395 33.7028 217.645 34.9087 217.159 36.2275C216.673 37.5463 216.46 38.9503 216.534 40.354C216.608 41.7577 216.968 43.1316 217.59 44.3918C218.212 45.6521 219.085 46.7724 220.155 47.6844C221.224 48.5963 222.469 49.2809 223.812 49.6962C225.154 50.1115 226.568 50.249 227.966 50.1001C225.424 49.831 223.071 48.6307 221.362 46.7305C219.652 44.8304 218.705 42.3647 218.705 39.8085Z" fill="#2F2E41"/>
<path d="M212.986 75.2154C220.657 75.2154 226.876 70.582 226.876 64.8656C226.876 59.1499 220.657 54.5159 212.986 54.5159C205.314 54.5159 199.095 59.1499 199.095 64.8656C199.095 70.582 205.314 75.2154 212.986 75.2154Z" fill="#2F2E41"/>
<path d="M186.908 97.8083C186.717 98.8307 186.263 99.8581 186.646 100.911C186.93 101.691 187.622 102.309 188.037 103.049C188.873 104.536 188.319 106.44 186.881 107.022C186.072 106.555 185.123 106.395 184.205 106.57C183.788 106.664 183.419 106.908 183.17 107.256C182.921 107.605 182.809 108.033 182.856 108.459C183.047 109.716 184.513 110.522 185.259 111.644C185.717 112.485 186.025 113.399 186.17 114.345C186.537 115.815 187.182 117.273 187.257 118.742C187.332 120.212 186.617 121.765 185.159 121.975C183.933 122.152 182.615 121.321 181.728 120.312C180.841 119.304 180.243 118.107 179.431 117.045C176.792 113.594 172.28 111.985 169.226 108.854C165.312 104.841 164.483 98.8966 165.883 94.1581C166.471 92.1683 167.444 90.2661 169.097 89.0519C170.833 87.7778 173.15 87.3704 175.094 86.3795C177.172 85.32 178.766 83.6254 180.604 82.2418C182.442 80.8582 184.719 79.7492 187.228 80.1223C188.977 80.3822 190.637 81.3349 192.373 81.7843C194.261 82.3001 196.27 82.1345 198.047 81.3163L196.434 83.0475C197.595 83.5078 198.845 83.6973 200.091 83.602C199.589 84.6293 198.71 85.4235 197.636 85.8185C198.505 86.4977 199.596 86.8267 200.695 86.7407C199.498 88.1085 198.212 89.5318 196.367 90.0085C195.463 90.2421 194.479 90.2307 193.546 90.3832C191.558 90.7084 189.884 91.7581 188.26 92.7882C187.408 93.3291 186.336 93.9424 186.342 95.0651C186.347 96.0004 187.103 96.7635 186.908 97.8083Z" fill="#2F2E41"/>
<path d="M193.376 129.415C193.376 129.415 188.473 147.391 197.189 151.204C205.904 155.017 223.88 169.18 227.149 174.083C230.417 178.985 234.23 180.62 234.23 180.62C234.23 180.62 247.303 169.725 244.58 166.457C241.856 163.188 230.962 153.383 230.962 153.383C230.962 153.383 203.181 123.423 193.376 129.415Z" fill="#3F3D56"/>
<path d="M236.409 131.96C236.409 131.96 216.396 126.24 210.333 125.287C204.27 124.334 188.473 125.968 191.742 128.692C195.01 131.416 214.075 133.594 214.075 133.594L236.954 142.31L236.409 131.96Z" fill="#A0616A"/>
<path d="M236.409 107.627C236.409 107.627 238.043 118.521 238.043 122.334C238.043 126.147 240.767 129.416 238.588 129.416C236.409 129.416 234.775 127.237 234.775 129.416C234.775 131.594 231.507 144.668 234.775 144.668C238.043 144.668 246.214 142.489 247.848 142.489C249.482 142.489 254.929 141.399 254.385 135.407C253.84 129.416 251.661 122.879 252.751 121.789C253.84 120.7 254.385 115.253 253.295 114.163C252.206 113.074 249.482 105.992 249.482 105.992L236.409 107.627Z" fill="#2F2E41"/>
<g opacity="0.3">
<path opacity="0.3" d="M402.206 233.757C401.709 233.697 401.204 233.735 400.721 233.871C400.238 234.006 399.787 234.235 399.392 234.545C398.998 234.854 398.669 235.239 398.423 235.676C398.178 236.113 398.02 236.594 397.96 237.092C397.901 237.589 397.94 238.094 398.075 238.577C398.21 239.06 398.439 239.511 398.749 239.906C399.058 240.299 399.443 240.629 399.88 240.875C400.317 241.12 400.798 241.278 401.296 241.338L408.876 242.248L409.787 234.667C409.908 233.661 409.624 232.649 408.998 231.853C408.373 231.057 407.457 230.542 406.452 230.421C405.446 230.3 404.434 230.584 403.638 231.21C402.842 231.835 402.327 232.751 402.206 233.757Z" fill="#E78F8E"/>
</g>
<path d="M358.272 94.6483C364.713 91.078 371.257 87.2521 375.809 81.4619C380.563 75.4149 382.592 66.3706 378.186 60.0654C374.486 54.769 367.116 52.9067 360.839 54.4373C354.562 55.968 349.307 60.3288 345.225 65.3377C346.561 59.1813 340.068 53.2369 333.792 53.7821C327.516 54.3273 322.481 59.8128 320.805 65.8854C319.129 71.9581 320.219 78.4569 322.018 84.4944C325.045 94.6178 329.993 104.064 336.591 112.317C337.603 110.484 338.826 108.775 340.235 107.226C345.189 101.777 351.83 98.2187 358.272 94.6483Z" fill="url(#paint0_linear)"/>
<path d="M338.1 112.61C329.669 103.315 323.495 92.2026 320.056 80.1348C318.288 73.866 317.253 66.7386 319.902 60.5539C321.951 55.7704 326.317 51.4423 331.73 51.0417C337.442 50.6188 343.784 55.9085 342.56 61.9573C342.469 62.409 343.064 62.8855 343.416 62.4555C347.988 56.8746 354.273 51.7339 361.763 51.2299C368.434 50.7811 375.442 54.1147 377.385 60.8916C379.409 67.9501 375.917 75.4177 371.027 80.409C365.602 85.9458 358.54 89.3996 351.875 93.1705C345.317 96.8808 338.646 101.165 334.613 107.724C332.696 110.757 331.512 114.195 331.153 117.765C330.837 121.45 331.758 124.934 333.542 128.148C335.437 131.561 337.781 134.672 339.492 138.197C341.175 141.68 342.455 145.344 343.307 149.117C345.029 156.638 345.04 164.45 343.34 171.976C340.196 185.693 331.021 197.765 318.811 204.71C317.336 205.547 315.819 206.31 314.267 206.995C313.666 207.261 314.186 208.143 314.784 207.879C321.252 204.976 327.066 200.796 331.878 195.59C336.689 190.383 340.399 184.258 342.784 177.581C347.949 162.917 345.969 146.02 337.705 132.874C335.542 129.434 333.044 126.097 332.332 121.998C331.679 118.242 332.483 114.324 334.069 110.897C337.465 103.559 344.198 98.7889 350.998 94.852C357.796 90.9161 365.058 87.5074 370.82 82.0481C375.948 77.1883 379.732 70.2539 378.844 62.9895C378.477 59.6697 376.932 56.5916 374.488 54.3146C372.025 52.1483 368.969 50.7699 365.715 50.3573C358.454 49.3337 351.649 52.7783 346.474 57.6476C345.127 58.9258 343.863 60.2899 342.692 61.7313L343.548 62.2296C344.652 56.7698 340.312 51.754 335.23 50.3732C329.704 48.8715 324.225 52.1023 321.041 56.4822C317.063 61.9532 316.738 68.9693 317.901 75.42C319.107 82.1118 321.604 88.6631 324.637 94.7299C328.018 101.481 332.304 107.74 337.375 113.334C337.819 113.824 338.541 113.098 338.099 112.61L338.1 112.61Z" fill="#3F3D56"/>
<defs>
<linearGradient id="paint0_linear" x1="350.299" y1="112.317" x2="350.299" y2="53.7473" gradientUnits="userSpaceOnUse">
<stop stop-color="#86007F"/>
<stop offset="0.2" stop-color="#0200F7"/>
<stop offset="0.4" stop-color="#02811A"/>
<stop offset="0.6" stop-color="#FEFF42"/>
<stop offset="0.8" stop-color="#FFA42B"/>
<stop offset="1" stop-color="#FA061C"/>
</linearGradient>
</defs>
</svg>
